<?xml version="1.0" encoding="utf-8"?>
<!-- Generator: Adobe Illustrator 27.0.0, SVG Export Plug-In . SVG Version: 6.00 Build 0)  -->
<svg version="1.1" id="Layer_1" xmlns="http://www.w3.org/2000/svg" xmlns:xlink="http://www.w3.org/1999/xlink" x="0px" y="0px"
	 viewBox="0 0 841.9 259.1" style="enable-background:new 0 0 841.9 259.1;" xml:space="preserve">
<style type="text/css">
	.st0{fill:#FFFFFF;}
	.st1{fill-rule:evenodd;clip-rule:evenodd;fill:#5A0E27;}
	.st2{fill-rule:evenodd;clip-rule:evenodd;fill:#75B7E5;}
	.st3{fill-rule:evenodd;clip-rule:evenodd;fill:#FFFFFF;}
	.st4{fill:none;stroke:#0F1B2B;stroke-miterlimit:10;}
</style>
<g>
	<path class="st0" d="M201,214.5v-94.4h-15V105h46.8v15.2h-15v94.4H201z"/>
	<path class="st0" d="M291.3,177.3v37.2h-16.8v-36.9c0-4.9-2.2-7-7-7H260v44h-16.8V105h27.5c13.6,0,20.4,6.7,20.4,20.3V146
		c0,9.7-3.4,14.4-9.5,16.9C288.5,164.8,291.3,169,291.3,177.3z M268.1,119.8H260V156h7.5c4.7,0,6.9-2.2,6.9-6.7v-23.2
		C274.4,121.9,272.3,119.8,268.1,119.8z"/>
	<path class="st0" d="M355.5,214.5h-16.6l-2.2-17.2h-17.4l-2,17.2h-15.5l15.6-109.7h22.2L355.5,214.5z M321.2,182.4h13.6l-6.9-55.4
		L321.2,182.4z"/>
	<path class="st0" d="M414,174v20.2c0,13.6-6.7,20.4-20.4,20.4h-27.4V105h27.1c13.6,0,20.4,6.7,20.4,20.3v16.1
		c0,9.7-3.3,14.6-9.2,16.8C410.9,160.4,414,165.1,414,174z M390.8,119.7h-8v31.9h7.4c4.7,0,6.9-2.4,6.9-6.9v-18.8
		C397.1,121.7,395,119.7,390.8,119.7z M382.8,199.8h8.3c4.2,0,6.3-2,6.3-6.3v-20.8c0-4.7-2.2-6.9-6.9-6.9h-7.7L382.8,199.8
		L382.8,199.8z"/>
	<path class="st0" d="M425.1,120v-15H465v16.4l-24.3,78.1H465v15h-40.7v-16.4l24.4-78.1L425.1,120L425.1,120z"/>
	<path class="st0" d="M505.1,215.5h-8.9c-13.6,0-20.4-6.7-20.4-20.4v-70.7c0-13.6,6.7-20.3,20.4-20.3h8.9c13.6,0,20.3,6.7,20.3,20.3
		v70.7C525.4,208.8,518.7,215.5,505.1,215.5z M502.4,118.8H499c-4.4,0-6.4,2-6.4,6.4v69.2c0,4.4,2,6.4,6.4,6.4h3.4
		c4.2,0,6.3-2,6.3-6.4v-69.2C508.7,120.8,506.6,118.8,502.4,118.8z"/>
	<path class="st0" d="M571,214.5l-17.1-73.7l0.2,19.2v54.5h-15V105h19.6l15.7,67.6l-0.2-18.3V105h15v109.6H571z"/>
	<path class="st0" d="M650.5,177.3v17.8c0,13.6-6.7,20.4-20.3,20.4h-7.4c-13.6,0-20.2-6.7-20.2-20.2v-23.2h16.3v22.5
		c0,4.2,2,6.3,6.4,6.3h2.2c4.4,0,6.4-2,6.4-6.3v-15c0-4.5-1.6-6.6-4.7-8.9l-16.9-12.4c-7.5-5.3-9.7-10.5-9.7-18.9v-15
		c0-13.6,6.7-20.3,20.3-20.3h7c13.5,0,20.2,6.7,20.2,20.2v19.9h-16.4v-19.2c0-4.2-2-6.3-6.3-6.3h-2c-4.2,0-6.3,2-6.3,6.3v12.2
		c0,4.5,1.6,6.7,4.7,8.9l16.9,12.4C648.1,163.7,650.5,168.4,650.5,177.3z"/>
	<path class="st0" d="M680.2,214.5h-16.8V105h26.3c13.6,0,20.3,6.7,20.3,20.3v29.1c0,13.6-6.7,20.4-20.3,20.4h-9.5L680.2,214.5
		L680.2,214.5z M687.1,119.7h-6.9v40.4h6.9c4.2,0,6.3-2,6.3-6.4v-27.6C693.4,121.7,691.3,119.7,687.1,119.7z"/>
	<path class="st0" d="M751.3,215.5h-8.9c-13.6,0-20.3-6.7-20.3-20.4v-70.7c0-13.6,6.7-20.3,20.3-20.3h8.9c13.6,0,20.3,6.7,20.3,20.3
		v70.7C771.6,208.8,764.9,215.5,751.3,215.5z M748.6,118.8h-3.4c-4.4,0-6.4,2-6.4,6.4v69.2c0,4.4,2,6.4,6.4,6.4h3.4
		c4.2,0,6.3-2,6.3-6.4v-69.2C754.9,120.8,752.8,118.8,748.6,118.8z"/>
	<path class="st0" d="M833.3,177.3v37.2h-16.8v-36.9c0-4.9-2.2-7-7-7H802v44h-16.8V105h27.5c13.6,0,20.3,6.7,20.3,20.3V146
		c0,9.7-3.4,14.4-9.5,16.9C830.5,164.8,833.3,169,833.3,177.3z M810.1,119.8H802V156h7.5c4.7,0,6.9-2.2,6.9-6.7v-23.2
		C816.4,121.9,814.3,119.8,810.1,119.8z"/>
</g>
<g>
	<g>
		<path class="st1" d="M152.1,182c0-0.4,0-1,0-1.4c0-18.9,0-119.7,0-119.7S139.2,71,115.9,64c-17.3-6.8-21.6-10.5-31-14.8
			C58.4,36.2,35,34.4,4.8,49.5V189c0,0,0,2.4,0.5,6.2c3.3,33,35.1,58.8,73.6,58.6c38.9-0.3,70.5-27,72.8-60.5
			C152.1,190.4,152.2,186.9,152.1,182z"/>
		<path class="st0" d="M45.2,38.8c13.3,0,26.1,3.7,39.7,10.4c9.5,4.3,13.7,8,31,14.8c6,1.8,11.3,2.5,15.8,2.5
			c13.2,0,20.3-5.6,20.3-5.6s0,100.8,0,119.7c0,0.4,0,1,0,1.4c0.1,4.9,0,8.5-0.4,11.3c-2.3,33.5-33.9,60.2-72.8,60.5
			c-0.2,0-0.4,0-0.6,0c-38.3,0-69.7-25.7-73-58.6c-0.5-3.8-0.5-6.2-0.5-6.2V49.5C19.5,42.2,32.6,38.8,45.2,38.8 M45.2,34.5
			L45.2,34.5c-13.5,0-27.3,3.6-42.3,11.2l-2.4,1.2v2.7V189c0,0.4,0,2.9,0.5,6.7c1.7,17.1,10.6,32.9,25,44.5
			c14.3,11.5,32.9,17.9,52.3,17.9c0.2,0,0.4,0,0.6,0c19.7-0.1,38.5-6.8,52.9-18.8c14.4-12,23-28.2,24.2-45.6
			c0.4-3.1,0.5-6.7,0.4-11.8c0-0.3,0-0.6,0-0.8l0-0.5V60.8v-9.1c-1.2,1.2-2.3,2.3-3.6,3.3c-1,0.8-1.8,1.4-3,2.1
			c-0.3,0.2-0.6,0.3-0.8,0.5c-4.2,2.2-10.1,4.5-17.2,4.5c-4.6,0-9.4-0.8-14.4-2.2c-10.7-4.2-16.3-7.2-21.3-9.9
			c-3-1.6-5.8-3.1-9.3-4.7C71.7,37.9,58.5,34.5,45.2,34.5z"/>
	</g>
	<path class="st2" d="M84.1,129.8c-19.8,4.2-40.2,22.7-40.2,43.5c0,23.3,21.9,38.7,40.1,37.4c13.4-1,26.3-5.7,27.3-21.9
		c0.8-12.6-7.3-17.8-18.2-21.8c-9.5-3.5-16.4-12.4-16.5-22.7C76.6,138.8,79.1,133.1,84.1,129.8 M152.1,119.5
		c-10.7,7.5-24.3,9.6-41,9.6c-2.6,0-5.1-0.2-7.3-0.4c4.7,2.7,7.3,5.9,8.9,11.7c-3.3-1.5-6.6-2.3-8.8-2.3c-4.8,0-9.3,3.2-9.1,8.2
		c0.1,3.2,2.5,6,6.1,7.4c8.1,3.2,16.3,5.6,23.8,10.2c14.9,9.1,17.9,20.3,17.9,29.7c0,12.2-5.9,25.9-18.8,36.5
		c-10.7,8.8-25,15.1-44.7,15.5c-21.9,0.5-37.8-7.7-50.3-20.1c-11.6-11.4-15.8-27.8-15.8-42.6c0-20.9,9.4-38.4,24.9-49.8
		c11.4-8.3,27.1-13.3,40.4-13.2c-8.1-3.8-16.7-7.4-30.1-7.4c-14.9,0-31,6.7-43.4,21.3V97.1c10.6-6.2,26.9-10.8,42.1-10.8
		c20.5,0,30.8,8.4,41.1,15.6c10.1,7.1,18.5,12.9,35.4,13.7c10.6,0.5,20.2-1.8,28.7-7.4V119.5z"/>
	<g>
		<path class="st3" d="M80.3,221.1l4,0l-2.4,4.2c3.8-0.7,6.3,8.5-0.5,8.9c-4.8,0-4.7-5.6-3.7-7.6L80.3,221.1z M81.1,228
			c-0.4,0-0.7,0.7-0.7,1.7c0,0.9,0.3,1.7,0.7,1.7c0.4,0,0.7-0.7,0.7-1.7C81.9,228.7,81.5,228,81.1,228"/>
		<polygon class="st3" points="66.9,221.2 66.8,233.7 63.4,233.6 63.4,224 62,224 62,221.2 		"/>
		<polygon class="st3" points="86.6,221.2 86.6,224.2 90.4,224.1 86.1,233.6 90,233.7 94.9,221.2 		"/>
		<path class="st3" d="M72.2,229.5l-2.6,4.1l3.7,0l3-6.1c2.2-8.2-10-9.1-7.9-0.4C68.8,228.8,69.9,229.6,72.2,229.5 M72.3,223.7
			c0.4,0,0.7,0.7,0.7,1.7c0,0.9-0.3,1.7-0.7,1.7c-0.4,0-0.7-0.7-0.7-1.7C71.5,224.4,71.9,223.7,72.3,223.7"/>
	</g>
	<path class="st4" d="M146.1,62.9"/>
	<polygon class="st0" points="78.5,3.3 82.6,14.9 94.9,15.2 85.2,22.7 88.6,34.5 78.5,27.7 68.3,34.5 71.7,22.7 62,15.2 74.4,14.9 	
		"/>
	<g>
		<g>
			<path class="st0" d="M81.3,60c-0.4-2.1-1.3-4.1-2.5-5.9c-0.1,0-0.2,0-0.3,0c-8.2,0-14.9,6-16.2,13.8c3.7-4.9,9.6-8.1,16.3-8.1
				C79.5,59.8,80.4,59.9,81.3,60z"/>
			<path class="st0" d="M79.1,61.9c-7.1,0-13.4,3.7-17,9.2c0.1,2.1,0.5,4,1.3,5.8c2.6-5.6,8.3-9.5,14.9-9.5c0.9,0,1.9,0.1,2.7,0.2
				c0.4-1.4,0.6-2.8,0.6-4.3c0-0.4,0-0.9-0.1-1.3C80.7,61.9,79.9,61.9,79.1,61.9z"/>
		</g>
		<g>
			<path class="st0" d="M68.1,73.5c-1.6,1.5-2.9,3.2-3.8,5.1c0,0.1,0.1,0.2,0.1,0.2c4.1,7.1,12.7,9.9,20.1,7
				c-6.1-0.7-11.9-4.2-15.2-10C68.9,75.1,68.5,74.3,68.1,73.5z"/>
			<path class="st0" d="M70.8,74.4c3.5,6.2,9.8,9.8,16.4,10.2c1.8-1.1,3.2-2.5,4.4-4c-6.2,0.5-12.4-2.5-15.6-8.2
				c-0.5-0.8-0.8-1.7-1.2-2.5c-1.4,0.4-2.7,0.9-4,1.6c-0.4,0.2-0.7,0.4-1.1,0.7C70,72.9,70.4,73.6,70.8,74.4z"/>
		</g>
		<g>
			<path class="st0" d="M86,78.2c2.1,0.7,4.2,1,6.3,0.9c0.1-0.1,0.1-0.2,0.2-0.2c4.2-7,2.6-15.9-3.5-21c2.3,5.7,2,12.4-1.4,18.1
				C87.1,76.7,86.6,77.5,86,78.2z"/>
			<path class="st0" d="M85.6,75.4c3.7-6.1,3.8-13.3,0.9-19.3c-1.8-1-3.7-1.6-5.7-1.9c3.5,5.1,3.9,12,0.5,17.7
				c-0.5,0.8-1,1.5-1.6,2.2c1,1,2.1,1.9,3.4,2.7c0.4,0.2,0.7,0.4,1.1,0.6C84.7,76.8,85.1,76.1,85.6,75.4z"/>
		</g>
	</g>
</g>
</svg>
