<?xml version="1.0" encoding="utf-8"?>
<!-- Generator: Adobe Illustrator 27.7.0, SVG Export Plug-In . SVG Version: 6.00 Build 0)  -->
<svg version="1.1" id="Layer_1" xmlns="http://www.w3.org/2000/svg" xmlns:xlink="http://www.w3.org/1999/xlink" x="0px" y="0px"
	 viewBox="0 0 841.9 259.1" style="enable-background:new 0 0 841.9 259.1;" xml:space="preserve">
<style type="text/css">
	.st0{fill:#FFFFFF;}
	.st1{fill-rule:evenodd;clip-rule:evenodd;fill:#5A0D27;}
	.st2{fill-rule:evenodd;clip-rule:evenodd;fill:#74B5E3;}
	.st3{fill-rule:evenodd;clip-rule:evenodd;fill:#FFFFFF;}
	.st4{fill:none;stroke:#0F1B2B;stroke-width:0.2565;stroke-miterlimit:10;}
</style>
<g>
	<path class="st0" d="M201,214.5v-94.4h-15V105h46.8v15.2h-15v94.4H201V214.5z"/>
	<path class="st0" d="M291.3,177.3v37.2h-16.8v-36.9c0-4.9-2.2-7-7-7H260v44h-16.8V105h27.5c13.6,0,20.4,6.7,20.4,20.3V146
		c0,9.7-3.4,14.4-9.5,16.9C288.5,164.8,291.3,169,291.3,177.3z M268.1,119.8H260V156h7.5c4.7,0,6.9-2.2,6.9-6.7v-23.2
		C274.4,121.9,272.3,119.8,268.1,119.8z"/>
	<path class="st0" d="M355.5,214.5h-16.6l-2.2-17.2h-17.4l-2,17.2h-15.5l15.6-109.7h22.2L355.5,214.5z M321.2,182.4h13.6l-6.9-55.4
		L321.2,182.4z"/>
	<path class="st0" d="M414,174v20.2c0,13.6-6.7,20.4-20.4,20.4h-27.4V105h27.1c13.6,0,20.4,6.7,20.4,20.3v16.1
		c0,9.7-3.3,14.6-9.2,16.8C410.9,160.4,414,165.1,414,174z M390.8,119.7h-8v31.9h7.4c4.7,0,6.9-2.4,6.9-6.9v-18.8
		C397.1,121.7,395,119.7,390.8,119.7z M382.8,199.8h8.3c4.2,0,6.3-2,6.3-6.3v-20.8c0-4.7-2.2-6.9-6.9-6.9h-7.7L382.8,199.8
		L382.8,199.8z"/>
	<path class="st0" d="M425.1,120v-15H465v16.4l-24.3,78.1H465v15h-40.7v-16.4l24.4-78.1L425.1,120L425.1,120z"/>
	<path class="st0" d="M505.1,215.5h-8.9c-13.6,0-20.4-6.7-20.4-20.4v-70.7c0-13.6,6.7-20.3,20.4-20.3h8.9c13.6,0,20.3,6.7,20.3,20.3
		v70.7C525.4,208.8,518.7,215.5,505.1,215.5z M502.4,118.8H499c-4.4,0-6.4,2-6.4,6.4v69.2c0,4.4,2,6.4,6.4,6.4h3.4
		c4.2,0,6.3-2,6.3-6.4v-69.2C508.7,120.8,506.6,118.8,502.4,118.8z"/>
	<path class="st0" d="M571,214.5l-17.1-73.7l0.2,19.2v54.5h-15V105h19.6l15.7,67.6l-0.2-18.3V105h15v109.6H571V214.5z"/>
	<path class="st0" d="M650.5,177.3v17.8c0,13.6-6.7,20.4-20.3,20.4h-7.4c-13.6,0-20.2-6.7-20.2-20.2v-23.2h16.3v22.5
		c0,4.2,2,6.3,6.4,6.3h2.2c4.4,0,6.4-2,6.4-6.3v-15c0-4.5-1.6-6.6-4.7-8.9l-16.9-12.4c-7.5-5.3-9.7-10.5-9.7-18.9v-15
		c0-13.6,6.7-20.3,20.3-20.3h7c13.5,0,20.2,6.7,20.2,20.2v19.9h-16.4V125c0-4.2-2-6.3-6.3-6.3h-2c-4.2,0-6.3,2-6.3,6.3v12.2
		c0,4.5,1.6,6.7,4.7,8.9l16.9,12.4C648.1,163.7,650.5,168.4,650.5,177.3z"/>
	<path class="st0" d="M680.2,214.5h-16.8V105h26.3c13.6,0,20.3,6.7,20.3,20.3v29.1c0,13.6-6.7,20.4-20.3,20.4h-9.5V214.5
		L680.2,214.5z M687.1,119.7h-6.9v40.4h6.9c4.2,0,6.3-2,6.3-6.4v-27.6C693.4,121.7,691.3,119.7,687.1,119.7z"/>
	<path class="st0" d="M751.3,215.5h-8.9c-13.6,0-20.3-6.7-20.3-20.4v-70.7c0-13.6,6.7-20.3,20.3-20.3h8.9c13.6,0,20.3,6.7,20.3,20.3
		v70.7C771.6,208.8,764.9,215.5,751.3,215.5z M748.6,118.8h-3.4c-4.4,0-6.4,2-6.4,6.4v69.2c0,4.4,2,6.4,6.4,6.4h3.4
		c4.2,0,6.3-2,6.3-6.4v-69.2C754.9,120.8,752.8,118.8,748.6,118.8z"/>
	<path class="st0" d="M833.3,177.3v37.2h-16.8v-36.9c0-4.9-2.2-7-7-7H802v44h-16.8V105h27.5c13.6,0,20.3,6.7,20.3,20.3V146
		c0,9.7-3.4,14.4-9.5,16.9C830.5,164.8,833.3,169,833.3,177.3z M810.1,119.8H802V156h7.5c4.7,0,6.9-2.2,6.9-6.7v-23.2
		C816.4,121.9,814.3,119.8,810.1,119.8z"/>
</g>
<g>
	<path class="st0" d="M159.5,48.3v10.1v121.5l0,0.5c0,0.3,0,0.6,0,0.8c0.1,5.2,0,8.9-0.4,12c-1.3,17.8-10.1,34.4-24.8,46.7
		c-14.6,12.2-33.8,19-54,19.2l-0.6,0c-19.8,0-38.8-6.5-53.4-18.3c-14.7-11.8-23.7-28-25.5-45.5c-0.5-3.9-0.5-6.4-0.5-6.9V47v-3
		L3,42.6c15.3-7.7,29.4-11.4,43.2-11.4c13.5,0,27,3.5,42.4,11c3.6,1.6,6.5,3.2,9.5,4.8c5,2.7,10.7,5.8,21.5,10c5,1.5,7,2.2,14.5,2.2
		C148.5,59.2,159.5,48.3,159.5,48.3z"/>
	<g>
		<g>
			<path class="st1" d="M154.6,181.3c0-0.4,0-1,0-1.4c0-19.2,0-121.5,0-121.5s-13.1,10.3-36.7,3.2c-17.6-6.9-21.9-10.7-31.5-15
				C59.5,33.5,35.8,31.6,5.2,47v141.5c0,0,0,2.4,0.5,6.3c3.4,33.5,35.6,59.7,74.7,59.4c39.5-0.3,71.5-27.4,73.9-61.4
				C154.6,189.9,154.7,186.3,154.6,181.3z"/>
		</g>
		<path class="st2" d="M85.6,128.4c-20.1,4.2-40.8,23-40.8,44.2c0,23.7,22.2,39.2,40.7,37.9c13.6-1,26.7-5.8,27.7-22.2
			c0.8-12.8-7.4-18.1-18.4-22.1c-9.7-3.6-16.7-12.6-16.8-23C78,137.5,80.6,131.8,85.6,128.4 M154.6,118c-10.8,7.6-24.7,9.7-41.6,9.7
			c-2.6,0-5.1-0.2-7.4-0.4c4.8,2.8,7.4,6,9,11.9c-3.4-1.5-6.7-2.4-8.9-2.4c-4.8,0-9.4,3.3-9.2,8.3c0.1,3.2,2.6,6.1,6.2,7.6
			c8.2,3.3,16.6,5.7,24.2,10.3c15.1,9.2,18.2,20.6,18.2,30.1c0,12.4-6,26.2-19.1,37c-10.8,8.9-25.3,15.3-45.4,15.7
			c-22.2,0.5-38.3-7.8-51.1-20.3c-11.8-11.6-16-28.2-16-43.2c0-21.2,9.5-39,25.3-50.5c11.6-8.5,27.4-13.5,41-13.4
			c-8.2-3.9-16.9-7.5-30.5-7.5c-15.1,0-31.4,6.8-44,21.6V95.2c10.7-6.3,27.3-11,42.7-11c20.8,0,31.3,8.5,41.7,15.8
			c10.3,7.2,18.8,13.1,35.9,13.9c10.7,0.5,20.5-1.8,29.2-7.5V118z"/>
		<g>
			<path class="st3" d="M81.8,221l4.1,0l-2.4,4.2c3.8-0.8,6.4,8.7-0.5,9c-4.8,0-4.7-5.7-3.8-7.7L81.8,221z M82.6,228
				c-0.4,0-0.8,0.8-0.8,1.7c0,0.9,0.3,1.7,0.8,1.7c0.4,0,0.8-0.8,0.8-1.7C83.4,228.7,83,228,82.6,228"/>
			<polygon class="st3" points="68.2,221.2 68.1,233.8 64.7,233.7 64.7,223.9 63.3,223.9 63.3,221.2 			"/>
			<polygon class="st3" points="88.2,221.2 88.1,224.2 92,224.1 87.6,233.7 91.6,233.8 96.6,221.1 			"/>
			<path class="st3" d="M73.5,229.5l-2.6,4.2l3.8,0l3-6.2c2.3-8.3-10.2-9.2-8-0.4C70.2,228.8,71.2,229.6,73.5,229.5 M73.6,223.6
				c0.4,0,0.8,0.8,0.8,1.7c0,0.9-0.3,1.7-0.8,1.7c-0.4,0-0.8-0.8-0.8-1.7C72.9,224.4,73.2,223.6,73.6,223.6"/>
		</g>
		<path class="st4" d="M148.5,60.5"/>
		<polygon class="st0" points="79.9,0 84.1,11.7 96.6,12.1 86.7,19.6 90.2,31.7 79.9,24.7 69.6,31.7 73.1,19.6 63.3,12.1 75.7,11.7 
					"/>
		<g>
			<g>
				<path class="st0" d="M82.8,57.6c-0.5-2.2-1.3-4.2-2.5-5.9c-0.1,0-0.2,0-0.3,0c-8.3,0-15.2,6.1-16.4,14c3.8-5,9.8-8.2,16.5-8.2
					C81,57.4,81.9,57.4,82.8,57.6z"/>
				<path class="st0" d="M80.5,59.5c-7.2,0-13.6,3.7-17.3,9.3c0.1,2.1,0.5,4.1,1.3,5.9c2.6-5.7,8.4-9.7,15.1-9.7
					c1,0,1.9,0.1,2.8,0.2c0.4-1.4,0.6-2.9,0.6-4.4c0-0.4,0-0.9-0.1-1.3C82.2,59.5,81.4,59.5,80.5,59.5z"/>
			</g>
			<g>
				<path class="st0" d="M69.4,71.3c-1.6,1.5-2.9,3.2-3.9,5.2c0,0.1,0.1,0.2,0.1,0.3c4.2,7.2,12.9,10,20.4,7.1
					c-6.2-0.7-12-4.3-15.4-10.1C70.2,72.9,69.8,72.1,69.4,71.3z"/>
				<path class="st0" d="M72.2,72.1c3.6,6.3,9.9,9.9,16.6,10.4c1.8-1.1,3.3-2.5,4.5-4.1C87,79,80.7,75.9,77.4,70.1
					c-0.5-0.8-0.9-1.7-1.2-2.5c-1.4,0.4-2.8,0.9-4.1,1.7c-0.4,0.2-0.7,0.4-1.1,0.7C71.4,70.7,71.7,71.4,72.2,72.1z"/>
			</g>
			<g>
				<path class="st0" d="M87.6,76c2.1,0.7,4.3,1,6.4,0.9c0.1-0.1,0.1-0.2,0.2-0.2c4.3-7.1,2.6-16.1-3.5-21.3
					c2.3,5.8,2,12.6-1.4,18.4C88.7,74.6,88.2,75.3,87.6,76z"/>
				<path class="st0" d="M87.1,73.2c3.7-6.2,3.8-13.5,0.9-19.6c-1.8-1-3.8-1.7-5.7-1.9c3.5,5.2,3.9,12.2,0.5,17.9
					c-0.5,0.8-1,1.6-1.6,2.3c1,1,2.1,2,3.4,2.8c0.4,0.2,0.8,0.4,1.1,0.6C86.2,74.6,86.7,73.9,87.1,73.2z"/>
			</g>
		</g>
	</g>
</g>
</svg>
